<svg xmlns="http://www.w3.org/2000/svg" xmlns:xlink="http://www.w3.org/1999/xlink" viewBox="0 0 460.28 148.42"><defs><style>.a{fill:#fff;}.b{fill:url(#a);}</style><radialGradient id="a" cx="28.82" cy="74.21" r="56.29" gradientUnits="userSpaceOnUse"><stop offset="0" stop-color="#e0009b"/><stop offset="0.09" stop-color="#cb00aa"/><stop offset="0.27" stop-color="#a600c4"/><stop offset="0.46" stop-color="#8900d9"/><stop offset="0.64" stop-color="#7500e8"/><stop offset="0.83" stop-color="#6800f1"/><stop offset="1" stop-color="#6400f4"/></radialGradient></defs><title>Logo pełne białe</title><path class="a" d="M44,113.72a0,0,0,0,0,0,0q-1.78,1.31-3.68,2.65c-1.82,1.3-3.57,2.57-5.24,3.83,0,0,0,0,0,0a46.24,46.24,0,0,1,6.65,7.52s0,0,0,0H28.49a5.34,5.34,0,0,0-4,1.83,24.6,24.6,0,0,0-4.53,7.23s0,0,0,0H46a24.3,24.3,0,0,1,.76,5.92,5.59,5.59,0,0,0,5.3,5.62A5.45,5.45,0,0,0,57.65,143C57.65,130.59,51.46,121.12,44,113.72Z"/><path class="a" d="M29,22.31H41.14s0,0,0,0a50.35,50.35,0,0,1-6.34,7.39,0,0,0,0,0,0,0c2.31,1.84,4.67,3.58,6.9,5.23l1.84,1.37h0c7.67-7.87,14-17.86,14.06-30.74a5.56,5.56,0,0,0-5-5.6,5.46,5.46,0,0,0-5.9,5.44,27.42,27.42,0,0,1-1.11,7.74l0,0H20.46a0,0,0,0,0,0,0,30.12,30.12,0,0,0,4.49,7.15A5.33,5.33,0,0,0,29,22.31Z"/><path class="a" d="M13.31,103.39c3-2.53,6-4.78,8.84-6.81a0,0,0,0,0,0,0l-.83-.68A41.82,41.82,0,0,1,15,89.62s0,0,0,0H29.58a5.39,5.39,0,0,0,3.58-1.37c3-2.7,4.37-4.54,4.87-6.41q.16-.65.3-1.29s0,0,0,0h-27v0a32.58,32.58,0,0,1,.15-11,0,0,0,0,1,0,0H38.14c-.06-.21-.11-.43-.17-.65-.62-2.23-1.52-3.79-5.25-7.11h0a5.24,5.24,0,0,0-3.51-1.32H15.31a0,0,0,0,1,0,0,34.76,34.76,0,0,1,4.4-4.51c.75-.67,1.6-1.37,2.55-2.11a0,0,0,0,0,0,0c-2.74-2.06-5.7-4.39-8.66-7h0c-.39.33-.78.66-1.14,1-5.11,4.55-8.91,9-10.87,16.16a43.81,43.81,0,0,0-.11,22.76c2,7.6,7,12.66,11.84,16.77Z"/><path class="b" d="M5.46,148.42A5.47,5.47,0,0,1,0,143c0-20.91,17.67-33.53,29.35-41.88,2.63-1.87,5.12-3.65,7-5.21,4.85-4.06,8.1-7.49,9.3-12.05a32.69,32.69,0,0,0-.08-17.06c-1.26-4.6-3.65-7.38-7.6-10.9-1.89-1.68-4.44-3.57-7.4-5.76C18.38,41.1,0,27.51,0,5.46a5.46,5.46,0,0,1,10.92,0C10.92,22,25.41,32.71,37,41.32c3.05,2.24,5.92,4.37,8.18,6.38,5.1,4.55,8.9,9,10.86,16.16a43.6,43.6,0,0,1,.11,22.76C54,94.76,48.43,100,43.34,104.25c-2.18,1.83-4.83,3.72-7.64,5.72-11,7.89-24.78,17.7-24.78,33A5.46,5.46,0,0,1,5.46,148.42Z"/><path class="a" d="M160.15,97.27c0,14.06-11.16,22.2-32.54,22.2H85.55V38.13h39.74c20.33,0,30.79,8.48,30.79,21.15a19.54,19.54,0,0,1-10.8,17.89C154.34,80.08,160.15,87.05,160.15,97.27Zm-55.89-45V71.48H123c9.17,0,14.17-3.26,14.17-9.65s-5-9.52-14.17-9.52Zm37,43c0-6.86-5.23-10.11-15-10.11h-22v20.1h22C136,105.29,141.21,102.27,141.21,95.3Z"/><path class="a" d="M164,38.13C164,32.44,168.52,28,175.26,28s11.27,4.18,11.27,9.76c0,6-4.54,10.46-11.27,10.46S164,43.82,164,38.13ZM166.19,57h18.13v62.52H166.19Z"/><path class="a" d="M189.55,88.21c0-18.82,14.52-32.19,34.39-32.19s34.28,13.37,34.28,32.19-14.41,32.19-34.28,32.19S189.55,107,189.55,88.21Zm50.31,0c0-10.81-6.86-17.31-15.92-17.31s-16,6.5-16,17.31,7,17.31,16,17.31S239.86,99,239.86,88.21Z"/><path class="a" d="M327.24,83.68v35.79H309.11v-33c0-10.11-4.65-14.76-12.66-14.76-8.72,0-15,5.35-15,16.85v30.91H263.33V33.25h18.13V63.46c4.88-4.88,11.85-7.44,19.87-7.44C316.08,56,327.24,64.62,327.24,83.68Z"/><path class="a" d="M392,83.79v35.68H375v-7.79c-3.37,5.7-9.88,8.72-19.06,8.72-14.64,0-23.36-8.14-23.36-18.94,0-11,7.79-18.71,26.85-18.71h14.4c0-7.79-4.64-12.32-14.4-12.32-6.63,0-13.48,2.21-18,5.81l-6.5-12.66c6.85-4.88,17-7.56,26.95-7.56C380.92,56,392,64.85,392,83.79ZM373.83,99.71V93.32H361.4c-8.48,0-11.15,3.14-11.15,7.32,0,4.53,3.83,7.56,10.22,7.56C366.51,108.2,371.74,105.41,373.83,99.71Z"/><path class="a" d="M397.42,88.21c0-18.82,14.52-32.19,34.86-32.19,13.13,0,23.47,5.7,28,15.92L446.22,79.5c-3.37-5.93-8.36-8.6-14.06-8.6-9.18,0-16.38,6.39-16.38,17.31s7.2,17.31,16.38,17.31c5.7,0,10.69-2.55,14.06-8.6l14.06,7.67c-4.53,10-14.87,15.81-28,15.81C411.94,120.4,397.42,107,397.42,88.21Z"/></svg>